<?xml version="1.0" encoding="UTF-8" standalone="no"?>
<!-- Generator: Adobe Illustrator 19.0.0, SVG Export Plug-In . SVG Version: 6.00 Build 0)  -->

<svg
   version="1.1"
   id="layer"
   x="0px"
   y="0px"
   viewBox="-153 -46 205.10001 207"
   xml:space="preserve"
   width="205.10001"
   height="207"
   xmlns="http://www.w3.org/2000/svg"
   xmlns:svg="http://www.w3.org/2000/svg"><defs
   id="defs5" />
<style
   type="text/css"
   id="style1">
	.st0{fill:#3F4F75;}
	.st1{fill:#80CFBE;}
	.st2{fill:#FFFFFF;}
</style>
<path
   class="st0"
   d="m 35.6,161 h -172.1 c -9.1,0 -16.5,-7.6 -16.5,-17 V -29 c 0,-9.4 7.4,-17 16.5,-17 H 35.6 c 9.1,0 16.5,7.6 16.5,17 v 172.9 c 0,9.5 -7.4,17.1 -16.5,17.1"
   id="path1" />
<path
   class="st1"
   d="m -101.7,34.8 c 0.3,0.4 0.5,0.8 0.7,1.2 -0.6,-0.5 -1.2,-0.9 -1.9,-1.1 -0.1,-0.3 -0.4,-0.6 -0.8,-0.7 h -0.1 c -0.1,-0.1 -0.2,-0.2 -0.3,-0.4 0.8,0.3 1.7,0.6 2.4,1 m -6.2,8.4 c 0.5,0 1,-0.1 1.5,-0.3 0.1,0.1 0.2,0.2 0.3,0.3 -0.6,0.2 -1.3,0.2 -2,0.1 l 0.2,-0.1 m 2.1,-6.3 c 0.2,0.1 0.4,0.2 0.6,0.2 0,0.2 0,0.3 0,0.5 -0.4,-0.5 -1,-0.5 -1.5,-0.2 l -0.1,-0.4 0.7,-0.2 c 0.1,0.1 0.2,0.1 0.3,0.1 m -3.3,0.7 c 0.1,0.4 0.1,0.8 0.3,1.1 -0.2,-0.3 -0.3,-0.6 -0.3,-1.1 m 6.4,2.9 c -0.1,-0.2 -0.2,-0.4 -0.3,-0.6 0.1,-0.2 0.2,-0.4 0.2,-0.5 0.2,0.4 0.2,0.7 0.1,1.1 m 3.2,-7 c -0.2,-0.1 -0.3,-0.2 -0.5,-0.3 -0.6,-0.7 -1.2,-1.4 -2,-1.9 -3.2,-2.3 -8.2,-2.6 -10.5,1.1 -0.1,0.2 -0.2,0.4 -0.3,0.6 -1.5,1.3 -2.6,3.2 -2.9,5.2 -0.5,0.1 -0.8,0.6 -0.8,1.1 -0.1,2.3 1.1,4.2 2.9,5.4 1.8,1.6 4.5,2.3 7.1,2.3 3.9,0.1 6.5,-2 7.7,-4.8 v -0.1 c 2,-2.7 2.3,-6.5 -0.7,-8.6 m -2.2,-32.7 c 0.3,0.4 0.5,0.8 0.7,1.2 -0.6,-0.5 -1.2,-0.9 -1.9,-1.1 -0.1,-0.3 -0.4,-0.6 -0.8,-0.7 h -0.1 c -0.1,-0.1 -0.2,-0.2 -0.3,-0.4 0.8,0.2 1.7,0.5 2.4,1 m -6.2,8.4 c 0.5,0 1,-0.1 1.5,-0.3 0.1,0.1 0.2,0.2 0.3,0.3 -0.6,0.2 -1.3,0.2 -2,0.1 l 0.2,-0.1 m 2.1,-6.3 c 0.2,0.1 0.4,0.2 0.6,0.2 0,0.2 0,0.3 0,0.5 -0.4,-0.5 -1,-0.5 -1.5,-0.2 l -0.1,-0.4 0.7,-0.2 c 0.1,0 0.2,0 0.3,0.1 m -3.3,0.6 c 0,0.1 0,0.3 0.1,0.4 0.1,0.2 0.1,0.4 0.2,0.7 -0.2,-0.2 -0.3,-0.6 -0.3,-1.1 m 6.4,2.9 -0.3,-0.6 c 0.1,-0.2 0.2,-0.4 0.2,-0.5 0.2,0.4 0.2,0.8 0.1,1.1 m 3.2,-6.9 c -0.2,-0.1 -0.3,-0.2 -0.5,-0.3 -0.6,-0.7 -1.2,-1.4 -2,-1.9 -3.2,-2.3 -8.2,-2.6 -10.5,1.1 -0.1,0.2 -0.2,0.4 -0.3,0.6 -1.5,1.3 -2.6,3.2 -2.9,5.2 -0.5,0.1 -0.8,0.6 -0.8,1.1 -0.1,2.3 1.1,4.2 2.9,5.4 1.8,1.6 4.5,2.3 7.1,2.3 3.9,0.1 6.5,-2 7.7,-4.8 V 8.1 c 2,-2.8 2.3,-6.5 -0.7,-8.6 m 72.6,35.3 c 0.3,0.4 0.5,0.8 0.7,1.2 -0.6,-0.5 -1.2,-0.9 -1.9,-1.1 -0.1,-0.3 -0.4,-0.6 -0.8,-0.7 H -29 c -0.1,-0.1 -0.2,-0.2 -0.3,-0.4 0.9,0.3 1.7,0.6 2.4,1 m -6.1,8.4 c 0.5,0 1,-0.1 1.5,-0.3 0.1,0.1 0.2,0.2 0.3,0.3 -0.6,0.2 -1.3,0.2 -2,0.1 l 0.2,-0.1 m 2,-6.3 c 0.2,0.1 0.4,0.2 0.6,0.2 0,0.2 0,0.3 0,0.5 -0.4,-0.5 -1,-0.5 -1.5,-0.2 L -32,37 l 0.7,-0.2 c 0.2,0.1 0.2,0.1 0.3,0.1 m -3.2,0.7 c 0.1,0.4 0.1,0.8 0.3,1.1 -0.3,-0.3 -0.4,-0.6 -0.3,-1.1 m 6.3,2.9 c -0.1,-0.2 -0.2,-0.4 -0.3,-0.6 0.1,-0.2 0.2,-0.4 0.3,-0.5 0.1,0.4 0.1,0.7 0,1.1 m 3.3,-7 c -0.2,-0.1 -0.3,-0.2 -0.5,-0.3 -0.6,-0.7 -1.2,-1.4 -2,-1.9 -3.2,-2.3 -8.2,-2.6 -10.5,1.1 -0.1,0.2 -0.2,0.4 -0.3,0.6 -1.5,1.3 -2.6,3.2 -2.9,5.2 -0.5,0.1 -0.8,0.6 -0.8,1.1 -0.1,2.3 1.1,4.2 2.9,5.4 1.8,1.6 4.5,2.3 7.1,2.3 3.9,0.1 6.5,-2 7.7,-4.8 v -0.1 c 2,-2.7 2.2,-6.5 -0.7,-8.6 M -26.9,0.8 c 0.3,0.4 0.5,0.8 0.7,1.2 -0.6,-0.5 -1.2,-0.9 -1.9,-1.1 -0.1,-0.3 -0.4,-0.6 -0.8,-0.7 H -29 c -0.1,-0.1 -0.2,-0.2 -0.3,-0.4 0.9,0.2 1.7,0.5 2.4,1 M -33,9.2 c 0.5,0 1,-0.1 1.5,-0.3 0.1,0.1 0.2,0.2 0.3,0.3 -0.6,0.2 -1.3,0.2 -2,0.1 L -33,9.2 m 2,-6.3 c 0.2,0.1 0.4,0.2 0.6,0.2 0,0.2 0,0.3 0,0.5 -0.4,-0.5 -1,-0.5 -1.5,-0.2 L -32,3 -31.3,2.8 c 0.2,0 0.2,0 0.3,0.1 m -3.2,0.6 c 0.1,0.4 0.2,0.7 0.3,1.1 -0.3,-0.2 -0.4,-0.6 -0.3,-1.1 m 6.3,2.9 -0.3,-0.6 c 0.1,-0.2 0.2,-0.4 0.3,-0.5 0.1,0.4 0.1,0.8 0,1.1 m 3.3,-6.9 c -0.2,-0.1 -0.3,-0.2 -0.5,-0.3 -0.6,-0.7 -1.2,-1.4 -2,-1.9 -3.2,-2.3 -8.2,-2.6 -10.5,1.1 -0.1,0.2 -0.2,0.4 -0.3,0.6 -1.5,1.3 -2.6,3.2 -2.9,5.2 -0.5,0.1 -0.8,0.6 -0.8,1.1 -0.1,2.3 1.1,4.2 2.9,5.4 1.8,1.6 4.5,2.3 7.1,2.3 3.9,0.1 6.5,-2 7.7,-4.8 V 8.1 c 2,-2.8 2.2,-6.5 -0.7,-8.6"
   id="path2" />
<path
   class="st2"
   d="m -105,65.6 c -5,0 -9.1,4.1 -9.1,9.2 v 37 c 0,5.1 4.1,9.2 9.1,9.2 5,0 9.1,-4.1 9.1,-9.2 v -37 c 0,-5 -4.1,-9.2 -9.1,-9.2 m 72.7,0 c -5,0 -9.1,4.1 -9.1,9.2 v 37 c 0,5.1 4.1,9.2 9.1,9.2 5,0 9.1,-4.1 9.1,-9.2 v -37 c 0,-5 -4.1,-9.2 -9.1,-9.2 M -68.6,28.7 c -5,0 -9.1,4.1 -9.1,9.2 v 74 c 0,5.1 4.1,9.2 9.1,9.2 5,0 9.1,-4.1 9.1,-9.2 v -74 c 0,-5.1 -4.1,-9.2 -9.1,-9.2 m 72.7,0 c -5,0 -9.1,4.1 -9.1,9.2 v 74 c 0,5.1 4.1,9.2 9.1,9.2 5,0 9.1,-4.1 9.1,-9.2 v -74 c 0,-5.1 -4.1,-9.2 -9.1,-9.2"
   id="path3" />
<path
   class="st1"
   d="M 9.8,8.2 C 9.3,9 8.6,9.6 7.9,10 8.3,9.3 8.8,8.5 9.2,7.5 9.3,7.3 9.4,7.1 9.5,6.9 9.8,6.6 9.9,6.3 9.8,5.9 c 0,0 0,0 0,0 0.6,-0.4 1,-1.2 1.1,-2 L 11,3.8 c 0.1,1.5 -0.3,3.1 -1.2,4.4 m -11.9,-3 c 0,-0.4 0,-0.8 0,-1.2 0.4,1.3 0.9,2.6 1.4,3.8 C -0.4,8.6 0,9.5 0.5,10.2 0.2,10 0,9.8 -0.2,9.6 -1.4,8.5 -2,6.8 -2.1,5.2 M 4.1,3.4 c 0,-0.8 0,-1.7 0,-2.5 0.1,0 0.2,0.1 0.3,0.2 L 4.6,1.2 C 4.8,1.9 4.8,3 4.1,3.4 m 8.2,-3.6 C 12.3,-0.7 12,-1.3 11.6,-1.6 10.8,-2.9 9.8,-4 8.5,-4.8 6.8,-5.9 4.8,-6.5 3.6,-5 3.1,-5 2.7,-5.1 2.2,-5.1 c -0.3,0 -0.5,0 -0.8,0.1 -1.4,-0.6 -3,-0.6 -3.7,1.3 -0.3,0.7 -0.4,1.5 -0.4,2.3 -0.3,0.2 -0.5,0.5 -0.7,0.7 -1.4,2 -1.2,5.6 -0.6,7.8 0.9,3.8 5,6.8 8.6,5.7 0.3,0 0.6,-0.2 0.8,-0.3 1.9,0.4 3.9,-0.3 5.6,-2.3 2.5,-3 2.7,-7 1.3,-10.4 m -75.2,8.4 c -0.5,0.8 -1.2,1.4 -1.9,1.8 0.5,-0.7 0.9,-1.5 1.3,-2.5 0.1,-0.2 0.2,-0.4 0.2,-0.6 0.3,-0.3 0.4,-0.6 0.3,-1 0,0 0,0 0,0 0.6,-0.4 1,-1.2 1.1,-2 l 0.1,-0.1 c 0.2,1.5 -0.2,3.1 -1.1,4.4 m -11.9,-3 c 0,-0.4 0,-0.8 0,-1.2 0.4,1.3 0.9,2.6 1.4,3.8 0.3,0.8 0.7,1.7 1.2,2.4 -0.3,-0.2 -0.5,-0.4 -0.7,-0.6 -1.2,-1.1 -1.8,-2.8 -1.9,-4.4 m 6.2,-1.8 c -0.1,-0.8 0,-1.7 0,-2.5 0.1,0 0.2,0.1 0.3,0.2 0.1,0 0.1,0.1 0.2,0.1 0.2,0.7 0.2,1.8 -0.5,2.2 m 8.2,-3.6 c 0,-0.5 -0.3,-1.1 -0.7,-1.4 -0.8,-1.3 -1.8,-2.4 -3.1,-3.2 -1.7,-1.1 -3.7,-1.7 -4.9,-0.2 -0.5,0 -0.9,-0.1 -1.4,-0.1 -0.3,0 -0.5,0 -0.8,0.1 -1.5,-0.6 -3,-0.6 -3.7,1.3 -0.3,0.7 -0.4,1.5 -0.4,2.3 -0.3,0.2 -0.5,0.5 -0.7,0.7 -1.4,2 -1.2,5.6 -0.6,7.8 0.9,3.8 5,6.8 8.6,5.7 0.3,0 0.6,-0.2 0.8,-0.3 1.9,0.4 3.9,-0.3 5.6,-2.3 2.5,-3 2.7,-7 1.3,-10.4"
   id="path4" />

</svg>
